<svg xmlns="http://www.w3.org/2000/svg" xmlns:xlink="http://www.w3.org/1999/xlink" viewBox="0 0 536.76 113"><defs><style>.cls-1{isolation:isolate;}.cls-2{fill:#002d5c;}.cls-3{fill:#7abc32;}.cls-4{fill:url(#linear-gradient);}.cls-5,.cls-6{mix-blend-mode:multiply;}.cls-5{fill:url(#linear-gradient-2);}.cls-6{fill:url(#linear-gradient-3);}</style><linearGradient id="linear-gradient" x1="415" y1="385.5" x2="581.65" y2="385.5" gradientUnits="userSpaceOnUse"><stop offset="0" stop-color="#55b580"/><stop offset="0.07" stop-color="#4eb58c"/><stop offset="0.19" stop-color="#3cb4ad"/><stop offset="0.33" stop-color="#23b3db"/><stop offset="0.41" stop-color="#1e9acf"/><stop offset="0.5" stop-color="#1a84c4"/><stop offset="0.58" stop-color="#1877be"/><stop offset="0.66" stop-color="#1773bc"/><stop offset="0.75" stop-color="#1662a3"/><stop offset="0.93" stop-color="#153664"/><stop offset="1" stop-color="#142348"/></linearGradient><linearGradient id="linear-gradient-2" x1="462.71" y1="397.16" x2="452.14" y2="391.3" gradientUnits="userSpaceOnUse"><stop offset="0" stop-color="#fff"/><stop offset="0" stop-color="#fefeff"/><stop offset="0.15" stop-color="#c7e1f3"/><stop offset="0.3" stop-color="#98c8e8"/><stop offset="0.45" stop-color="#72b3e0"/><stop offset="0.59" stop-color="#54a3d9"/><stop offset="0.73" stop-color="#3f98d5"/><stop offset="0.87" stop-color="#3291d2"/><stop offset="1" stop-color="#2e8fd1"/></linearGradient><linearGradient id="linear-gradient-3" x1="507.58" y1="393.39" x2="490.22" y2="383.76" xlink:href="#linear-gradient-2"/></defs><title>Master logo WorkWave</title><g class="cls-1"><g id="Layer_1" data-name="Layer 1"><g id="_Group_" data-name="&lt;Group&gt;"><g id="_Group_2" data-name="&lt;Group&gt;"><g id="_Group_3" data-name="&lt;Group&gt;"><g id="_Group_4" data-name="&lt;Group&gt;"><path id="_Path_" data-name="&lt;Path&gt;" class="cls-2" d="M640.19,372.52a3.69,3.69,0,0,0-3.48,2.54l-7.08,22.13-6.37-22.13a3.54,3.54,0,0,0-3.36-2.54,3.47,3.47,0,0,0-3.3,2.54l-6.31,22.07-7.14-22.07a3.66,3.66,0,0,0-7.14,1.12c0,1.65,9.62,30.51,10.8,34.11a3.68,3.68,0,0,0,3.48,2.54,3.56,3.56,0,0,0,3.48-2.54l6.2-21.6,6.2,21.6a3.49,3.49,0,0,0,3.42,2.54,3.69,3.69,0,0,0,3.48-2.54c1.18-3.6,10.8-32.46,10.8-34.11a3.68,3.68,0,0,0-3.66-3.66" transform="translate(-415 -329)"/><path id="_Path_2" data-name="&lt;Path&gt;" class="cls-2" d="M760.93,387.92l9.32-9.15a3.61,3.61,0,0,0,1.12-2.6,3.63,3.63,0,0,0-6.2-2.6l-17.11,16.76V376.47a3.92,3.92,0,1,0-7.85,0v32.4a3.92,3.92,0,1,0,7.85,0v-8.32c2.48-2.48,5-4.9,7.49-7.38l11.09,17.88a3.77,3.77,0,0,0,3.13,1.77,3.63,3.63,0,0,0,3.6-3.66,3.66,3.66,0,0,0-.53-1.89Z" transform="translate(-415 -329)"/><path id="_Path_3" data-name="&lt;Path&gt;" class="cls-2" d="M825,372.52a3.69,3.69,0,0,0-3.48,2.54l-7.08,22.13L808,375.05a3.54,3.54,0,0,0-3.36-2.54,3.47,3.47,0,0,0-3.3,2.54l-6.31,22.07-7.14-22.07a3.66,3.66,0,0,0-7.14,1.12c0,1.65,9.62,30.51,10.8,34.11a3.69,3.69,0,0,0,3.48,2.54,3.56,3.56,0,0,0,3.48-2.54l6.19-21.6,6.2,21.6a3.49,3.49,0,0,0,3.42,2.54,3.69,3.69,0,0,0,3.48-2.54c1.18-3.6,10.8-32.46,10.8-34.11a3.68,3.68,0,0,0-3.66-3.66" transform="translate(-415 -329)"/><path id="_Path_4" data-name="&lt;Path&gt;" class="cls-2" d="M899.7,372.52a3.63,3.63,0,0,0-3.3,2.12l-11,26.38-11-26.38a3.56,3.56,0,0,0-3.36-2.12,3.76,3.76,0,0,0-3.6,3.72,4.36,4.36,0,0,0,.29,1.48l14.34,33a3.68,3.68,0,0,0,6.67,0l14.28-33a3.47,3.47,0,0,0,.35-1.54,3.68,3.68,0,0,0-3.66-3.66" transform="translate(-415 -329)"/><path id="_Path_5" data-name="&lt;Path&gt;" class="cls-2" d="M938.58,405H920.17v-8.73h9.73a3.64,3.64,0,0,0,3.66-3.66,3.69,3.69,0,0,0-3.66-3.72h-9.73v-8.44H937.7a3.69,3.69,0,1,0,0-7.38H916.28a3.9,3.9,0,0,0-4,3.89v31.45a4,4,0,0,0,4,4h22.3a3.69,3.69,0,0,0,3.72-3.66,3.78,3.78,0,0,0-3.72-3.72" transform="translate(-415 -329)"/><path id="_Compound_Path_" data-name="&lt;Compound Path&gt;" class="cls-2" d="M669.22,372.34a20.39,20.39,0,1,0,20.12,20.36,20.1,20.1,0,0,0-20.12-20.36m0,33.52c-7.38,0-12.33-5.9-12.33-13.16s5-13.1,12.33-13.1,12.27,5.84,12.27,13.1-4.9,13.16-12.27,13.16" transform="translate(-415 -329)"/><path id="_Compound_Path_2" data-name="&lt;Compound Path&gt;" class="cls-2" d="M730.79,384.85c0-8.62-6.55-11.8-14.34-11.8H701.82a3.85,3.85,0,0,0-3.89,3.9v32a3.85,3.85,0,0,0,3.89,3.89,3.94,3.94,0,0,0,4-3.89V396.47h10.8c.06.3,6.43,13,7,14.22a3.79,3.79,0,0,0,7.2-1.65c0-1.89-5.31-11.68-6.43-13.93,4.3-1.83,6.43-5.67,6.43-10.27m-13.22,4.9h-11.8V380.3h11.8c2.95,0,5.37,1.65,5.37,4.78s-2.48,4.66-5.37,4.66" transform="translate(-415 -329)"/><path id="_Compound_Path_3" data-name="&lt;Compound Path&gt;" class="cls-2" d="M830.19,407.63a4.45,4.45,0,0,0-.3,1.53,3.63,3.63,0,0,0,3.6,3.66,3.1,3.1,0,0,0,2.24-.9,3.19,3.19,0,0,0,1-1.2c.23-.47,5.1-10.21,18.41-11.62l5.21,11.59a3.63,3.63,0,0,0,3.3,2.13,3.74,3.74,0,0,0,3.72-3.72,3.36,3.36,0,0,0-.35-1.48l-15.1-33a3.58,3.58,0,0,0-3.24-2.12,3.76,3.76,0,0,0-3.42,2.12Zm22.17-14.71a31.26,31.26,0,0,0-9,2.89l5.2-11.26Z" transform="translate(-415 -329)"/></g></g></g><g id="_Group_5" data-name="&lt;Group&gt;"><g id="_Group_6" data-name="&lt;Group&gt;"><g id="_Group_7" data-name="&lt;Group&gt;"><g id="_Group_8" data-name="&lt;Group&gt;"><g id="_Group_9" data-name="&lt;Group&gt;"><line id="_Path_6" data-name="&lt;Path&gt;" class="cls-3" x1="32.77" y1="61.14" x2="33.42" y2="63.28"/><line id="_Path_7" data-name="&lt;Path&gt;" class="cls-3" x1="34.16" y1="61.88" x2="32.03" y2="62.54"/></g></g></g></g><path id="_Path_8" data-name="&lt;Path&gt;" class="cls-3" d="M519.93,365.13,515.33,351a9,9,0,0,0-4.92-5.89,8.71,8.71,0,0,0-11.5,4.41L479.09,396.9l-6.79-19.76-.07-.21c-.75-2-2.79-4.13-5.59-3.32-2.25.66-3.45,2.85-4,4.08l-4.79,11.79,11.83,35.9a8.71,8.71,0,0,0,16.27,1L506,378.52v.05l4.73-11.45c.57-1.23,1.77-3.42,4-4.08,2.9-.85,4.94,1.36,5.62,3.48Z" transform="translate(-415 -329)"/><path id="_Compound_Path_4" data-name="&lt;Compound Path&gt;" class="cls-4" d="M447.76,413.58l-2.24,5.06a8.36,8.36,0,0,1-15.28-6.78l2.64-5.86a8.35,8.35,0,0,1,11-4.25C448.12,403.62,449.63,409.36,447.76,413.58Zm-11.28-23-.71-2.47a8.36,8.36,0,1,0-16,4.68l.71,2.47a8.36,8.36,0,1,0,16-4.68Zm-7.35-16.2a7.13,7.13,0,1,0-8.41,5.56A7.13,7.13,0,0,0,429.12,374.38Zm33.09-18a8.71,8.71,0,0,0-11.5,4.41l-9.84,26-.31.79a8.37,8.37,0,0,0,14,8.85l0,0a8.35,8.35,0,0,0,1.38-2.19l6.7-16.48c.57-1.23,1.77-3.42,4-4.08,2.9-.85,5,1.42,5.66,3.53l-1-2.88-4.43-12.94-.12-.32a8.68,8.68,0,0,0-4.51-4.65M576.53,329.9c-7-3.44-11.33,4.07-11.33,4.07L534,407.87S520.81,367.41,520.23,366l-.08-.18.21.68c-.68-2.11-2.73-4.32-5.62-3.48-2.25.66-3.45,2.85-4,4.08L506,378.53v.06l19.22,58.24a8.23,8.23,0,0,0,7.54,5.16c5.93.29,8.37-5.16,8.37-5.16l40.16-96.39S583.56,333.35,576.53,329.9Zm-56.6,35.23L515.33,351a9,9,0,0,0-4.92-5.89,8.71,8.71,0,0,0-11.5,4.41L479.09,396.9l-6.79-19.76-.07-.21c-.75-2-2.79-4.13-5.59-3.32-2.25.66-3.45,2.85-4,4.08l-4.79,11.79,11.83,35.9a8.71,8.71,0,0,0,16.27,1L506,378.52v.05l4.73-11.45c.57-1.23,1.77-3.42,4-4.08,2.9-.85,4.94,1.36,5.62,3.48Z" transform="translate(-415 -329)"/><path id="_Path_9" data-name="&lt;Path&gt;" class="cls-5" d="M479.09,396.9l-6.79-19.76-.07-.21c-.75-2-2.79-4.13-5.59-3.32-2.25.66-3.45,2.85-4,4.08l-4.79,11.79,11.83,35.9a8.71,8.71,0,0,0,16.27,1l1.8-4.28Z" transform="translate(-415 -329)"/><path id="_Path_10" data-name="&lt;Path&gt;" class="cls-6" d="M534,407.83l0,0-2.29-7-11.3-34.31c-.68-2.11-2.73-4.32-5.62-3.48-2.25.66-3.45,2.85-4,4.08L506,378.53v.06l19.22,58.24a8.23,8.23,0,0,0,7.54,5.16c5.93.29,8.37-5.16,8.37-5.16l1.33-3.18Z" transform="translate(-415 -329)"/></g></g><path class="cls-2" d="M951.76,376.6a4,4,0,1,1-4-4A4,4,0,0,1,951.76,376.6Zm-7.35,0a3.4,3.4,0,0,0,3.38,3.54,3.36,3.36,0,0,0,3.31-3.51,3.35,3.35,0,1,0-6.69,0Zm2.74,2.08h-.9v-4a7.7,7.7,0,0,1,1.5-.12,2.39,2.39,0,0,1,1.35.29,1.11,1.11,0,0,1,.38.87,1,1,0,0,1-.81.92v0a1.17,1.17,0,0,1,.71,1,3.05,3.05,0,0,0,.29,1h-1a3.51,3.51,0,0,1-.31-1c-.07-.44-.31-.63-.81-.63h-.43Zm0-2.25h.43c.5,0,.9-.17.9-.58s-.26-.61-.83-.61a2.08,2.08,0,0,0-.5,0Z" transform="translate(-415 -329)"/></g></g></svg>